<svg width="299" height="391" viewBox="0 0 299 391" fill="none" xmlns="http://www.w3.org/2000/svg"><path d="M94.5 257.501c58.695-102.208 44.169-106.324 183.5-252 11-11.501 26 0 18 14-95.633 167.358-106.1 160.088-183 253m-18.5-15 18.5 15m-18.5-15L77 284m36-11.499L94.5 298M77 284l17.5 14M77 284c-24.635-5.555-35.387 17.474-43.752 43.5M94.5 298c14.115 23.124 1.353 47.073-25.5 65.269M33.248 327.5C24.295 355.353 18.076 386.64.5 390c26.558-5.077 50.644-14.632 68.5-26.731M33.248 327.5C51 320 38.5 367 69 363.269" stroke="#000"/></svg>